<?xml version="1.0" ?>
<!-- Uploaded to: SVG Repo, www.svgrepo.com, Generator: SVG Repo Mixer Tools -->
<svg width="800px" height="800px" viewBox="0 0 24 24" version="1.1" xml:space="preserve" xmlns="http://www.w3.org/2000/svg" xmlns:xlink="http://www.w3.org/1999/xlink">
<style type="text/css">
	.st0{opacity:0.2;fill:none;stroke:#000000;stroke-width:5.000000e-02;stroke-miterlimit:10;}
	.st1{fill:none;stroke:#000000;stroke-width:2;stroke-linecap:round;stroke-linejoin:round;stroke-miterlimit:10;}
</style>
<g id="Layer_1"/>
<g id="Layer_2">
<path d="M21,11h-0.6l0.3-0.3c0.4-0.4,0.4-1,0-1.4s-1-0.4-1.4,0L17.6,11h-3.2l2.9-2.9h2.4c0.6,0,1-0.4,1-1s-0.4-1-1-1h-0.4l0.3-0.3   c0.4-0.4,0.4-1,0-1.4s-1-0.4-1.4,0l-0.3,0.3V4.2c0-0.6-0.4-1-1-1s-1,0.4-1,1v2.4L13,9.6V6.4l1.7-1.7c0.4-0.4,0.4-1,0-1.4   s-1-0.4-1.4,0L13,3.6V3c0-0.6-0.4-1-1-1s-1,0.4-1,1v0.6l-0.3-0.3c-0.4-0.4-1-0.4-1.4,0s-0.4,1,0,1.4L11,6.4v3.2L8.1,6.6V4.2   c0-0.6-0.4-1-1-1s-1,0.4-1,1v0.4L5.7,4.3c-0.4-0.4-1-0.4-1.4,0s-0.4,1,0,1.4l0.3,0.3H4.2c-0.6,0-1,0.4-1,1s0.4,1,1,1h2.4L9.6,11   H6.4L4.7,9.3c-0.4-0.4-1-0.4-1.4,0s-0.4,1,0,1.4l0.4,0.4C3.3,11.2,3,11.6,3,12s0.3,0.8,0.7,0.9l-0.4,0.4c-0.4,0.4-0.4,1,0,1.4   C3.5,14.9,3.7,15,4,15s0.5-0.1,0.7-0.3L6.4,13h3.2l-2.9,2.9H4.2c-0.6,0-1,0.4-1,1s0.4,1,1,1h0.4l-0.3,0.3c-0.4,0.4-0.4,1,0,1.4   C4.5,19.9,4.7,20,5,20s0.5-0.1,0.7-0.3l0.3-0.3v0.4c0,0.6,0.4,1,1,1s1-0.4,1-1v-2.4l2.9-2.9v4.2l-1.7,1.7c-0.4,0.4-0.4,1,0,1.4   s1,0.4,1.4,0l0.4-0.4c0.1,0.4,0.5,0.7,0.9,0.7s0.8-0.3,0.9-0.7l0.4,0.4c0.2,0.2,0.5,0.3,0.7,0.3s0.5-0.1,0.7-0.3   c0.4-0.4,0.4-1,0-1.4L13,18.6v-4.2l2.9,2.9v2.4c0,0.6,0.4,1,1,1s1-0.4,1-1v-0.4l0.3,0.3c0.2,0.2,0.5,0.3,0.7,0.3s0.5-0.1,0.7-0.3   c0.4-0.4,0.4-1,0-1.4l-0.3-0.3h0.4c0.6,0,1-0.4,1-1s-0.4-1-1-1h-2.4L14.4,13h3.2l1.7,1.7c0.2,0.2,0.5,0.3,0.7,0.3s0.5-0.1,0.7-0.3   c0.4-0.4,0.4-1,0-1.4L20.4,13H21c0.6,0,1-0.4,1-1S21.6,11,21,11z"/>
</g>
</svg>