<?xml version="1.0" ?>
<!-- Uploaded to: SVG Repo, www.svgrepo.com, Generator: SVG Repo Mixer Tools -->
<svg width="800px" height="800px" viewBox="0 0 24 24" version="1.1" xml:space="preserve" xmlns="http://www.w3.org/2000/svg" xmlns:xlink="http://www.w3.org/1999/xlink">
<style type="text/css">
	.st0{opacity:0.2;fill:none;stroke:#000000;stroke-width:5.000000e-02;stroke-miterlimit:10;}
	.st1{fill:none;stroke:#000000;stroke-width:2;stroke-linecap:round;stroke-linejoin:round;stroke-miterlimit:10;}
</style>
<g id="Layer_1"/>
<g id="Layer_2">
<path d="M20,11h-1c0,0-0.1,0-0.1,0c-0.1-0.6-0.4-1.2-0.7-1.8l1.2-1.2c0.4-0.4,0.4-1,0-1.4s-1-0.4-1.4,0l-1.2,1.2   c-0.5-0.4-1.1-0.6-1.8-0.7c0,0,0-0.1,0-0.1V6c0-0.6-0.4-1-1-1s-1,0.4-1,1v1c0,0,0,0.1,0,0.1c-0.7,0.1-1.4,0.5-2,0.9   c-0.2,0-0.3,0-0.5,0c-2.1,0-3.8,1.5-4.2,3.6H5.4c-1.3,0-2.6,0.8-3.1,2.2C2.1,14.2,2,14.7,2,15.2v0.1c0,2,1.5,3.7,3.4,3.7h10.2   c1.9,0,3.4-1.7,3.4-3.7v-0.1c0-0.5-0.1-1.1-0.3-1.5c0.1-0.2,0.1-0.5,0.2-0.7c0,0,0.1,0,0.1,0h1c0.6,0,1-0.4,1-1S20.6,11,20,11z    M16.3,11.7c-0.2-0.1-0.5-0.1-0.7-0.1h-0.9c-0.1-0.3-0.1-0.5-0.3-0.8c0-0.1-0.1-0.2-0.1-0.2c-0.1-0.2-0.2-0.3-0.3-0.5   C14,10,14,9.9,13.9,9.8c-0.1-0.2-0.2-0.3-0.4-0.4c-0.1-0.1-0.1-0.1-0.2-0.2c0,0-0.1-0.1-0.1-0.1C13.5,9,13.8,9,14,9   c1.6,0,3,1.3,3,2.9c-0.1-0.1-0.3-0.1-0.4-0.1C16.5,11.7,16.4,11.7,16.3,11.7z M17,15.3c0,0.9-0.6,1.7-1.4,1.7H5.4   C4.6,17,4,16.2,4,15.3v-0.1c0-0.2,0-0.5,0.1-0.7c0.2-0.6,0.7-0.9,1.3-0.9h1.8c0.6,0,1-0.4,1-1c0-1.4,1-2.6,2.3-2.6   c0.2,0,0.4,0,0.5,0.1c0.1,0,0.3,0.1,0.4,0.1c0,0,0.1,0,0.1,0c0.1,0,0.1,0.1,0.2,0.1c0.7,0.5,1.2,1.3,1.2,2.3c0,0.6,0.4,1,1,1h1.8   c0.4,0,0.8,0.2,1.1,0.6c0,0,0.1,0.1,0.1,0.1c0.2,0.3,0.3,0.6,0.3,0.9V15.3z"/>
</g>
</svg>